<svg width="21" height="18" viewBox="0 0 21 18" fill="none" xmlns="http://www.w3.org/2000/svg" class="transition-all"><path d="M10.2857 5.29955L8.92366 3.9375L7.95134 2.96518C7.28839 2.30223 6.38839 1.92857 5.45625 1.92857C3.50759 1.92857 1.92857 3.50759 1.92857 5.45625C1.92857 6.39241 2.29821 7.28839 2.96116 7.95134L3.93348 8.92366L10.2857 15.2719L16.6379 8.92366L17.6103 7.95134C18.2732 7.28839 18.6429 6.39241 18.6429 5.45625C18.6429 3.50759 17.0638 1.92857 15.1152 1.92857C14.179 1.92857 13.283 2.29821 12.6201 2.96116L11.6478 3.9375L10.2857 5.29955ZM11.6478 16.6379L10.2857 18L8.92366 16.6379L2.57143 10.2857L1.59911 9.31339C0.574554 8.28884 0 6.90268 0 5.45625C0 2.44286 2.44286 0 5.45625 0C6.90268 0 8.28884 0.574554 9.31339 1.59911L10.2857 2.57143L11.258 1.59911C12.2826 0.578572 13.6688 0.0040178 15.1152 0.0040178C18.1286 -6.13675e-08 20.5714 2.44286 20.5714 5.45625C20.5714 6.90268 19.9969 8.28884 18.9723 9.31339L18 10.2857L11.6478 16.6379Z" fill="#191919"></path></svg>